<?xml version="1.0" standalone="no"?>
<!DOCTYPE svg PUBLIC "-//W3C//DTD SVG 20010904//EN"
 "http://www.w3.org/TR/2001/REC-SVG-20010904/DTD/svg10.dtd">
<svg version="1.0" xmlns="http://www.w3.org/2000/svg"
 width="320.000000pt" height="320.000000pt" viewBox="0 0 320.000000 320.000000"
 preserveAspectRatio="xMidYMid meet">
<metadata>
Created by potrace 1.16, written by Peter Selinger 2001-2019
</metadata>
    <g transform="translate(0.000000,320.000000) scale(0.100000,-0.100000)"
        stroke="none">
<path d="M0 2880 l0 -320 480 0 480 0 0 320 0 320 -480 0 -480 0 0 -320z"/>
<path d="M1280 2880 l0 -320 640 0 640 0 0 -361 c0 -412 -9 -508 -66 -678
-165 -498 -601 -838 -1122 -877 l-92 -7 0 -320 0 -320 110 7 c609 37 1152 349
1493 859 109 164 212 400 261 597 52 213 56 282 56 1041 l0 699 -960 0 -960 0
0 -320z"/>
<path d="M0 1920 l0 -320 480 0 480 0 0 320 0 320 -480 0 -480 0 0 -320z"/>
<path d="M1280 1760 l0 -480 320 -160 320 -160 0 640 0 640 -320 0 -320 0 0
-480z"/>
<path d="M320 960 l0 -320 -160 0 -160 0 0 -320 0 -320 193 0 c129 0 215 5
262 15 182 38 352 170 434 335 66 134 71 174 71 578 l0 352 -320 0 -320 0 0
-320z"/>
<path d="M2880 315 l-315 -315 318 0 317 0 0 315 c0 173 -1 315 -3 315 -1 0
-144 -142 -317 -315z"/>
</g>
</svg>
