<svg width="1600.000000" height="400.000000" viewBox="0 0 1600 400" fill="none" xmlns="http://www.w3.org/2000/svg" xmlns:xlink="http://www.w3.org/1999/xlink">
	<desc>
			Created with Pixso.
	</desc>
	<defs>
		<clipPath id="clip319_90">
			<rect id="宣传海报1600x900" width="1600.000000" height="400.000000" fill="white"/>
		</clipPath>
	</defs>
	<g clip-path="url(#clip319_90)">
		<path id="开发者汉化计划" d="M454.176 185.012L458.619 183.986L475.221 191.799C467.213 216.604 454.42 235.988 438.014 250.979C453.785 259.377 472.389 265.578 494.215 269.191C488.99 274.416 482.594 284.182 479.42 290.822C455.006 285.793 434.791 277.59 417.799 266.408C400.611 277.395 380.787 285.207 359.205 290.822C356.617 284.377 351.197 275.197 346.803 269.777C365.602 265.822 382.984 259.377 398.414 250.588C390.016 242.58 382.984 233.596 376.783 223.391C363.209 244.387 344.996 261.623 320.777 275.197C317.604 270.021 309.205 260.207 303.395 256.008C338.795 237.014 360.182 207.18 373.219 168.605L347.193 168.605C336.402 168.605 328.004 170.217 326.197 173.195C324.781 168.215 321.021 157.424 318.385 151.613C321.412 150.588 324.391 147.805 326.979 143.41C329.615 139.211 336.988 123.586 340.797 108.01L365.992 112.014C362.623 123.391 357.398 135.598 351.979 145.803L379.615 145.803C382.789 132.18 385.377 117.58 387.184 102.199L413.795 106.594C411.988 120.217 409.791 133.4 407.203 145.803L487.379 145.803L487.379 168.605L401.393 168.605C399.586 174.416 397.779 179.592 395.777 185.012L454.176 185.012ZM1027.98 249.807C1027.98 261.379 1029.2 263.186 1037.21 263.186L1060.59 263.186C1069.19 263.186 1070.6 255.178 1072.21 222.219C1078.22 227.004 1088.82 231.984 1095.6 233.596C1093.02 272.414 1086.81 287.014 1062.99 287.014L1033.79 287.014C1009.18 287.014 1002.2 278.176 1002.2 249.416L1002.2 228.811C994.383 233.596 987.01 237.6 979.393 241.213C976.219 236.623 969.578 229.592 963.816 224.807L963.816 290.383L938.621 290.383L938.621 185.402C933.592 191.408 928.611 196.779 923.582 201.809C920.604 195.998 912.791 183.205 908.396 177.59C928.416 159.816 947.996 131.594 958.982 102.785L983.201 110.793C977.781 123.586 971.189 136.623 963.816 149.221L963.816 222.219C976.219 216.213 989.402 208.596 1002.2 199.416L1002.2 106.594L1027.98 106.594L1027.98 178.811C1043.99 164.406 1058.79 147.805 1070.6 129.592L1093.41 145.217C1074.8 170.998 1051.61 193.41 1027.98 211.379L1027.98 249.807ZM689.6 164.016L689.6 185.012L617.578 185.012C609.814 190.578 602.197 195.803 593.994 200.979L666.797 200.979L666.797 289.797L641.797 289.797L641.797 284.621L572.998 284.621L572.998 290.578L549.219 290.578L549.219 225.197C539.209 229.592 528.809 233.986 518.604 237.795C515.82 232.619 508.594 223 504.199 218.215C530.42 210.012 555.42 198.586 578.418 185.012L510.4 185.012L510.4 164.016L574.609 164.016L574.609 145.803L527.588 145.803L527.588 125.197L574.609 125.197L574.609 103.615L598.193 103.615L598.193 125.197L641.602 125.197L641.602 135.012C649.219 126.809 656.006 118.41 662.207 109.621L682.617 120.021C671.191 135.793 657.812 150.588 643.213 164.016L689.6 164.016ZM1369.38 214.992C1377.58 203.42 1384.81 190.822 1390.38 177.59L1412.79 184.377C1403.61 205.422 1391.6 224.611 1377.19 241.408C1383 256.203 1389.4 264.992 1395.6 264.992C1400.19 264.992 1402.39 255.812 1403.61 232.424C1408.59 237.6 1416.79 243.215 1423.19 245.412C1419.38 280.178 1411.81 288.82 1393.79 288.82C1379.78 288.82 1368.6 277.785 1359.62 260.012C1349.02 270.021 1337.98 278.811 1326.22 285.793C1322.99 280.812 1314.6 271.584 1309.62 267.189C1324.41 259.182 1338.42 248.977 1350.39 237.014C1345.41 220.021 1341.4 200.002 1338.62 178.615L1311.81 181.594L1309.62 158.986L1336.42 156.203C1334.81 139.016 1334.18 121.389 1333.98 103.811L1358.39 103.811C1358.37 105.935 1358.36 108.063 1358.36 110.192C1358.36 124.891 1358.94 139.626 1360.01 153.615L1419.19 147.023L1421.38 169.387L1362.4 175.979C1364.21 190.188 1366.6 203.176 1369.38 214.992ZM450.807 104.396C458.619 112.795 469.41 124.416 474.781 131.789L455.592 144.191C450.611 136.818 440.211 124.416 432.398 115.383L450.807 104.396ZM1250.02 166.213L1296.02 166.213L1296.02 191.018L1250.02 191.018L1250.02 290.383L1224.39 290.383L1224.39 191.018L1176.39 191.018L1176.39 166.213L1224.39 166.213L1224.39 104.396L1250.02 104.396L1250.02 166.213ZM1379 104.982C1389.21 112.795 1401.8 123.977 1407.61 131.984L1390.82 146.193C1385.4 138.381 1372.99 126.223 1363.42 118.02L1379 104.982ZM1141.62 105.617C1152.61 114.211 1168.19 126.613 1175.22 135.012L1159.2 152.395C1152.41 143.605 1137.81 130.178 1126.58 120.803L1141.62 105.617ZM1466.01 262.6L1466.01 105.617L1489.21 105.617L1489.21 262.6C1489.21 275.783 1486.62 281.984 1479 285.793C1471.38 289.602 1459.62 290.383 1442.62 290.383C1441.79 283.791 1438.42 273.391 1435.2 266.799C1446.19 267.189 1457.81 267.189 1460.98 267.189C1464.6 266.994 1466.01 266.018 1466.01 262.6ZM730.59 107.18C742.992 112.404 759.984 121.193 768.188 128.225L755.199 147.414C747.582 140.188 731.176 130.422 718.383 124.416L730.59 107.18ZM248 186.379L289.016 186.379L289.016 209.182L248 209.182L248 290.578L223 290.578L223 209.182L175.783 209.182C172.219 239.016 160.988 269.387 126.223 291.213C122.219 285.793 112.99 277.395 106.984 273.391C136.184 255.812 147.023 232.814 150.783 209.182L107.619 209.182L107.619 186.379L152.785 186.379L152.785 137.6L114.211 137.6L114.211 115.188L283.01 115.188L283.01 137.6L248 137.6L248 186.379ZM867.602 116.408L871.605 115.383L886.4 120.412C880.395 170.021 866.82 207.18 846.605 234.816C859.984 249.807 876.195 261.818 895.775 269.777C890.6 274.416 883.617 283.791 880.199 289.406C860.619 280.422 844.213 268.215 830.785 253.176C814.818 269.191 795.58 281.203 773.412 289.992C770.58 283.791 764.623 274.611 759.984 270.021C781.615 262.6 800.805 250.783 816.381 234.377C799.389 208.791 787.621 177.395 779.223 141.018L789.818 138.82L773.412 138.82L773.412 116.408L867.602 116.408ZM1428.02 124.807L1450.78 124.807L1450.78 234.816L1428.02 234.816L1428.02 124.807ZM177.199 180.617L177.199 186.379L223 186.379L223 137.6L177.199 137.6L177.199 180.617ZM831.811 215.188C845.385 194.777 855.59 169.387 861.205 138.82L801.977 138.82C808.178 167.385 817.992 193.41 831.811 215.188ZM630.811 145.803L598.193 145.803L598.193 164.016L609.18 164.016C616.797 158.205 624.023 152.199 630.811 145.803ZM719.799 160.402C732.592 165.383 750.023 173.977 758.812 180.422L746.41 200.393C738.402 193.605 721.02 183.986 708.422 178.176L719.799 160.402ZM1164.38 164.992L1164.38 241.994L1184.79 227.98C1186.2 234.816 1189.82 245.021 1192.4 249.807C1152.22 278.811 1144.8 284.621 1140.99 289.602C1138.99 283.4 1133.18 272.609 1129.42 267.385C1133.81 264.406 1140.21 257.814 1140.21 248.781L1140.21 188.576L1111.01 188.576L1111.01 164.992L1164.38 164.992ZM417.408 237.209C427.223 228.811 435.182 218.996 441.383 208.01L392.213 208.01C399 218.996 407.398 228.811 417.408 237.209ZM713.598 272.023C723.998 256.984 738.988 232.18 750.805 208.986L767.211 225.002C756.811 245.803 744.408 268.605 732.592 287.99L713.598 272.023ZM572.998 233.205L641.797 233.205L641.797 220.412L572.998 220.412L572.998 233.205ZM572.998 251.223L572.998 264.797L641.797 264.797L641.797 251.223L572.998 251.223Z" fill-rule="evenodd" fill="#25C2A0"/>
		<path id="Developer Localization Project" d="M173.732 64.9766Q173.732 66.4041 173.021 67.1739Q172.99 67.2067 172.959 67.2383L172.952 67.2451Q172.937 67.26 172.921 67.2747Q172.161 68 170.709 68L170.615 68C169.623 68 168.869 67.7461 168.354 67.2383Q168.336 67.2211 168.319 67.2034L168.315 67.1991Q167.592 66.4276 167.592 64.9766L167.592 34.6367Q167.592 33.1844 168.316 32.424Q168.335 32.4052 168.354 32.3867C168.869 31.8711 169.623 31.6133 170.615 31.6133L170.709 31.6133Q172.138 31.6133 172.896 32.3264Q172.929 32.356 172.959 32.3867Q172.989 32.4164 173.018 32.4473L173.019 32.4484Q173.732 33.2076 173.732 34.6367L173.732 64.9766ZM435.972 64.9766Q435.972 66.4041 435.261 67.1739Q435.25 67.1857 435.238 67.1973Q435.219 67.218 435.198 67.2383Q435.182 67.2554 435.164 67.2721L435.161 67.2747Q434.401 68 432.948 68L432.854 68Q431.404 68 430.633 67.2759Q430.612 67.2574 430.593 67.2383L430.585 67.2302Q430.57 67.2148 430.556 67.1991Q429.831 66.4276 429.831 64.9766L429.831 34.6367Q429.831 33.1844 430.557 32.424Q430.572 32.4077 430.588 32.3918L430.593 32.3867Q430.615 32.3643 430.639 32.3425Q430.648 32.3336 430.657 32.3248L430.657 32.3248Q431.428 31.6133 432.854 31.6133L432.948 31.6133Q434.378 31.6133 435.137 32.3264L435.145 32.3339Q435.172 32.3599 435.198 32.3867Q435.229 32.417 435.259 32.4484Q435.972 33.2076 435.972 34.6367L435.972 64.9766ZM449.164 34.7305Q449.164 36.158 448.452 36.9278Q448.44 36.9408 448.429 36.9536Q448.41 36.9731 448.391 36.9922Q448.364 37.0191 448.337 37.0451L448.329 37.0525Q447.569 37.7656 446.141 37.7656L446.047 37.7656Q444.619 37.7656 443.85 37.0541Q443.84 37.0452 443.83 37.0363Q443.808 37.0145 443.785 36.9922L443.78 36.9875Q443.764 36.9705 443.747 36.953Q443.023 36.1815 443.023 34.7305L443.023 34.6367Q443.023 33.1844 443.749 32.424Q443.765 32.4077 443.78 32.3918L443.785 32.3867Q443.808 32.3643 443.831 32.3425Q443.84 32.3336 443.85 32.3248L443.85 32.3248Q444.619 31.6133 446.047 31.6133L446.141 31.6133Q447.569 31.6133 448.329 32.3264L448.337 32.3339Q448.364 32.3599 448.391 32.3867Q448.422 32.417 448.451 32.4484Q449.164 33.2076 449.164 34.6367L449.164 34.7305ZM542.3 34.7305Q542.3 36.158 541.589 36.9278Q541.576 36.9408 541.564 36.9536Q541.546 36.9731 541.526 36.9922Q541.5 37.0191 541.473 37.0451L541.465 37.0525Q540.706 37.7656 539.276 37.7656L539.183 37.7656Q537.756 37.7656 536.985 37.0541Q536.976 37.0452 536.967 37.0363Q536.943 37.0145 536.921 36.9922L536.917 36.9875Q536.899 36.9705 536.884 36.953Q536.159 36.1815 536.159 34.7305L536.159 34.6367Q536.159 33.1844 536.885 32.424Q536.9 32.4077 536.916 32.3918L536.921 32.3867Q536.943 32.3643 536.967 32.3425Q536.976 32.3336 536.985 32.3248L536.985 32.3248Q537.756 31.6133 539.183 31.6133L539.276 31.6133Q540.706 31.6133 541.465 32.3264L541.473 32.3339Q541.5 32.3599 541.526 32.3867Q541.558 32.417 541.587 32.4484Q542.3 33.2076 542.3 34.6367L542.3 34.7305ZM715.866 34.7305Q715.866 36.1579 715.155 36.9278Q715.125 36.9606 715.093 36.9922Q715.066 37.0191 715.039 37.0451L715.031 37.0525Q714.272 37.7656 712.843 37.7656L712.749 37.7656Q711.322 37.7656 710.552 37.0541Q710.52 37.0238 710.487 36.9922Q710.469 36.9728 710.45 36.953Q709.726 36.1815 709.726 34.7305L709.726 34.6367Q709.726 33.1844 710.451 32.424Q710.469 32.4052 710.487 32.3867Q710.52 32.3551 710.552 32.3248Q711.322 31.6133 712.749 31.6133L712.843 31.6133Q714.272 31.6133 715.031 32.3264L715.039 32.3339Q715.066 32.3599 715.093 32.3867Q715.123 32.4166 715.152 32.4477L715.153 32.4484Q715.866 33.2076 715.866 34.6367L715.866 34.7305ZM49.7891 68Q47.4307 68 46.1182 66.8284Q46.042 66.7599 45.9688 66.6875Q45.8838 66.6022 45.8037 66.512L45.8037 66.5118Q44.6445 65.2023 44.6445 62.8672L44.6445 37.5664Q44.6445 35.2286 45.8057 33.9291Q45.8848 33.8411 45.9688 33.7578Q46.0537 33.6724 46.1445 33.5925Q47.4541 32.4336 49.7891 32.4336L56.5977 32.4336Q61.9697 32.4336 65.8604 34.8347Q65.8906 34.8538 65.9219 34.8729Q65.9297 34.8779 65.9375 34.8828Q68.0898 36.2297 69.668 38.0692Q70.96 39.5746 71.8672 41.4102Q72.4658 42.6209 72.8867 43.8906Q73.8828 46.8974 73.8828 50.2344Q73.8828 53.1273 73.1074 55.7947Q72.6328 57.4279 71.8672 58.9766Q70.9805 60.7715 69.7256 62.2554L69.7246 62.2555Q68.1289 64.143 65.9375 65.5273Q65.8457 65.5853 65.7529 65.642Q61.8965 68 56.5977 68L49.7891 68ZM317.741 68Q315.383 68 314.07 66.8284L314.058 66.8165Q313.987 66.7537 313.921 66.6875Q313.835 66.6021 313.756 66.5118Q312.597 65.2022 312.597 62.8672L312.597 35.5977Q312.597 34.1717 313.305 33.3726L313.305 33.3725Q313.358 33.3113 313.417 33.2539Q313.474 33.1972 313.533 33.1444L313.541 33.1384Q314.35 32.4336 315.772 32.4336L315.866 32.4336Q317.292 32.4336 318.091 33.1414Q318.152 33.1956 318.21 33.2539Q318.269 33.3113 318.322 33.3725L318.322 33.3726Q319.03 34.1717 319.03 35.5977L319.03 61.7656L330.983 61.7656Q332.362 61.7656 333.138 62.4498Q333.199 62.504 333.257 62.5625Q333.315 62.6202 333.369 62.6816Q334.054 63.457 334.054 64.8359L334.054 64.9297Q334.054 66.3055 333.372 67.0906Q333.316 67.1547 333.257 67.2148Q333.211 67.2604 333.163 67.3032Q332.385 68 330.983 68L317.741 68ZM635.198 64.8359Q635.198 66.2589 634.493 67.0677L634.485 67.0764Q634.434 67.1356 634.378 67.1914Q634.332 67.2368 634.285 67.2797Q633.483 68 632.034 68L631.94 68Q630.494 68 629.683 67.2823Q629.633 67.2382 629.585 67.1914Q629.529 67.1356 629.477 67.0764L629.47 67.0677Q628.765 66.2589 628.765 64.8359L628.765 37.5664Q628.765 35.2286 629.926 33.9291L629.931 33.9244Q630.007 33.8389 630.089 33.7578Q630.174 33.6724 630.265 33.5925L630.265 33.5924Q631.574 32.4336 633.909 32.4336L640.671 32.4336Q643.062 32.4336 645.113 33.2668Q645.868 33.5732 646.577 33.9922Q648.457 35.1033 649.753 36.6908L649.753 36.6911Q650.274 37.3304 650.702 38.0469Q651.857 39.9848 652.116 42.0357Q652.19 42.6265 652.19 43.2266Q652.19 43.6313 652.155 44.0331L652.155 44.0339Q651.963 46.2605 650.702 48.3945Q650.292 49.089 649.794 49.714Q648.487 51.3566 646.577 52.5195Q645.772 53.0095 644.908 53.35Q642.942 54.125 640.671 54.125L635.198 54.125L635.198 64.8359ZM527.527 61.8594Q529.016 62.0938 529.73 62.8203Q529.789 62.8785 529.844 62.9408Q530.457 63.6448 530.457 64.8828L530.457 64.9766Q530.457 66.207 529.859 66.9678L529.858 66.9689Q529.756 67.0987 529.637 67.2148Q529.499 67.3487 529.343 67.4557L529.342 67.4565Q528.581 67.976 527.387 67.8594Q522.395 67.2852 520.039 64.7188Q519.781 64.4369 519.552 64.1338L519.551 64.1321Q517.684 61.6627 517.684 57.7812L517.684 48.2773L515.773 48.2773Q514.57 48.2773 513.844 47.689L513.842 47.6874Q513.755 47.6174 513.676 47.5391Q513.597 47.4586 513.525 47.3712Q512.938 46.6444 512.938 45.4414L512.938 45.3945Q512.938 44.082 513.592 43.3715Q513.632 43.3271 513.676 43.2852Q513.743 43.2198 513.815 43.1603Q514.547 42.5586 515.773 42.5586L517.684 42.5586L517.684 37.4727Q517.684 36.0203 518.409 35.2599Q518.424 35.2437 518.44 35.2278L518.445 35.2227Q518.468 35.2001 518.491 35.1783Q518.5 35.1695 518.51 35.1608Q519.279 34.4492 520.707 34.4492L520.812 34.4492Q522.241 34.4492 523.001 35.1624L523.009 35.1699Q523.036 35.1958 523.062 35.2227Q523.093 35.2529 523.123 35.2844Q523.836 36.0436 523.836 37.4727L523.836 42.5586L527.621 42.5586Q528.956 42.5586 529.668 43.2248L529.685 43.2401Q529.708 43.2623 529.73 43.2852Q529.761 43.3155 529.791 43.347Q530.457 44.0592 530.457 45.3945L530.457 45.4414Q530.457 46.6678 529.855 47.3992Q529.796 47.4716 529.73 47.5391Q529.688 47.5825 529.644 47.6233Q528.934 48.2773 527.621 48.2773L523.836 48.2773L523.836 56.8203Q523.836 58.4492 524.141 59.457Q524.364 60.1704 524.823 60.6667Q525.013 60.8714 525.242 61.0391Q526.039 61.6133 527.527 61.8594ZM794.655 61.8594Q796.144 62.0938 796.858 62.8203Q796.918 62.8785 796.972 62.9408Q797.585 63.6448 797.585 64.8828L797.585 64.9766Q797.585 66.207 796.987 66.9678L796.985 66.9702Q796.884 67.0993 796.765 67.2148Q796.627 67.3487 796.471 67.4557L796.47 67.4565Q795.709 67.976 794.515 67.8594Q789.522 67.2852 787.167 64.7188Q786.911 64.4383 786.683 64.1368L786.679 64.1321Q784.812 61.6628 784.812 57.7812L784.812 48.2773L782.901 48.2773Q781.698 48.2773 780.972 47.689Q780.884 47.6183 780.804 47.5391Q780.726 47.4593 780.655 47.3727L780.653 47.3712Q780.065 46.6445 780.065 45.4414L780.065 45.3945Q780.065 44.082 780.72 43.3715Q780.761 43.3271 780.804 43.2852Q780.871 43.2198 780.943 43.1603Q781.675 42.5586 782.901 42.5586L784.812 42.5586L784.812 37.4727Q784.812 36.0203 785.537 35.2599Q785.555 35.2411 785.573 35.2227Q785.604 35.191 785.638 35.1608Q786.407 34.4492 787.835 34.4492L787.94 34.4492Q789.369 34.4492 790.129 35.1624L790.137 35.1699Q790.164 35.1958 790.19 35.2227Q790.221 35.2526 790.25 35.2836L790.251 35.2844Q790.964 36.0435 790.964 37.4727L790.964 42.5586L794.749 42.5586Q796.084 42.5586 796.797 43.2248Q796.828 43.2543 796.858 43.2852Q796.881 43.3075 796.903 43.3306L796.919 43.347Q797.585 44.0593 797.585 45.3945L797.585 45.4414Q797.585 46.6678 796.983 47.3992L796.98 47.4028Q796.922 47.4732 796.858 47.5391Q796.821 47.5775 796.782 47.6139L796.772 47.6233Q796.062 48.2773 794.749 48.2773L790.964 48.2773L790.964 56.8203Q790.964 58.4492 791.269 59.457Q791.492 60.1704 791.951 60.6667Q792.141 60.8714 792.37 61.0391Q793.167 61.6133 794.655 61.8594ZM51.0781 38.668L51.0781 61.7656L56.5977 61.7656Q60.2422 61.7656 62.668 60.3242Q63.8311 59.6331 64.7061 58.6779Q65.6553 57.641 66.2656 56.293Q67.4492 53.6914 67.4492 50.2344Q67.4492 46.6836 66.2891 44.0938Q65.6895 42.7423 64.7432 41.71Q63.875 40.764 62.7148 40.0859Q60.3008 38.668 56.5977 38.668L51.0781 38.668ZM635.198 38.668L635.198 47.8906L640.671 47.8906Q642.3 47.8906 643.448 47.2695Q644.367 46.7684 644.918 46.0027L644.919 46.0018Q645.063 45.801 645.183 45.582Q645.286 45.3924 645.37 45.1948Q645.757 44.2935 645.757 43.2266Q645.757 42.1454 645.353 41.2454L645.352 41.2427Q645.274 41.0712 645.183 40.9062Q645.062 40.6914 644.918 40.4954Q644.366 39.7505 643.448 39.2773Q642.3 38.668 640.671 38.668L635.198 38.668ZM104.684 52.3086Q104.801 52.8783 104.801 53.3839Q104.801 54.3033 104.413 55.0107Q104.225 55.3546 103.945 55.6484Q103.825 55.7731 103.694 55.8849Q102.547 56.8672 100.559 56.8672L85.0596 56.8672Q85.252 58.3668 85.8164 59.5039Q86.1904 60.2481 86.7334 60.837Q87.4482 61.6113 88.4531 62.1172Q90.2344 63.0078 92.9297 63.0078Q93.5938 63.0078 94.2314 62.877L94.2314 62.877L94.2324 62.877Q94.7861 62.7633 95.3203 62.5508Q95.5635 62.4548 95.7988 62.3407Q96.6816 61.9116 97.4414 61.2266Q98.543 60.3242 99.4805 60.1836Q99.5078 60.1791 99.5361 60.1754L99.5381 60.1751Q100.45 60.0535 101.473 60.7578L101.613 60.8516Q102.771 61.6417 102.979 62.6317Q102.997 62.7136 103.008 62.7969Q103.024 62.9237 103.024 63.0496Q103.024 63.1057 103.021 63.1616Q102.969 64.0464 102.094 64.8828Q100.766 66.0444 99.252 66.8597L99.251 66.86Q98.5205 67.2535 97.7461 67.5664Q95.8896 68.3198 93.9834 68.4825L93.9834 68.4825Q93.458 68.5273 92.9297 68.5273Q88.7578 68.5273 85.6289 66.8047Q83.7891 65.7811 82.4395 64.3085Q81.502 63.2859 80.8008 62.0469Q80.5332 61.5707 80.3076 61.0754Q79.1016 58.4255 79.1016 55.2266Q79.1016 52.016 80.3242 49.3703L80.3242 49.37Q80.543 48.8967 80.8008 48.4414Q81.5957 47.0464 82.6807 45.9327Q83.9287 44.6513 85.5586 43.7422Q85.9854 43.5026 86.4277 43.2965L86.4277 43.2961Q89.1445 42.0312 92.4492 42.0312Q94.4922 42.0312 96.3525 42.6138Q97.1172 42.8533 97.8516 43.1914Q98.4521 43.4654 99.0137 43.8054L99.0137 43.8056Q100.805 44.8907 102.188 46.6484Q104.016 48.9453 104.684 52.3086ZM161.355 52.3086Q161.473 52.8783 161.473 53.3839Q161.473 54.3033 161.085 55.0107Q160.896 55.3546 160.617 55.6484Q160.497 55.7731 160.366 55.8849Q159.219 56.8672 157.23 56.8672L141.731 56.8672Q141.924 58.3668 142.488 59.5039Q142.863 60.248 143.405 60.8369L143.406 60.837Q144.12 61.6113 145.125 62.1172Q146.906 63.0078 149.602 63.0078Q150.266 63.0078 150.904 62.877Q151.458 62.7633 151.992 62.5508Q152.234 62.4552 152.469 62.3417L152.471 62.3407Q153.354 61.9116 154.113 61.2266Q155.215 60.3242 156.152 60.1836Q156.176 60.1798 156.198 60.1766Q156.204 60.1758 156.21 60.1751Q157.122 60.0535 158.145 60.7578L158.285 60.8516Q159.443 61.6417 159.651 62.6317L159.651 62.6321Q159.669 62.7138 159.68 62.7969Q159.696 62.9237 159.696 63.0496Q159.696 63.1057 159.693 63.1616Q159.641 64.0464 158.766 64.8828Q157.438 66.0444 155.924 66.8597L155.924 66.86Q155.192 67.2535 154.418 67.5664Q152.562 68.3198 150.656 68.4825Q150.131 68.5273 149.602 68.5273Q145.43 68.5273 142.301 66.8047Q140.461 65.7811 139.111 64.3085Q138.174 63.2859 137.473 62.0469Q137.205 61.5707 136.979 61.0754Q135.773 58.4255 135.773 55.2266Q135.773 52.016 136.996 49.3703Q137.215 48.8968 137.473 48.4414Q138.269 47.0465 139.353 45.9329L139.353 45.9327Q140.601 44.6513 142.23 43.7422Q142.657 43.5024 143.101 43.2961Q145.816 42.0312 149.121 42.0312Q151.164 42.0312 153.024 42.6138L153.024 42.6138Q153.789 42.8533 154.523 43.1914Q155.124 43.4654 155.686 43.8054L155.686 43.8056Q157.477 44.8907 158.859 46.6484Q160.688 48.9453 161.355 52.3086ZM193.123 68.5273Q191.133 68.5273 189.308 67.9785Q187.833 67.5353 186.467 66.7344Q184.903 65.8079 183.672 64.5541Q182.506 63.3654 181.639 61.8828Q180.805 60.4464 180.363 58.8979Q179.869 57.1619 179.869 55.2852Q179.869 53.2099 180.462 51.3206Q180.9 49.924 181.662 48.6289Q182.601 47.0452 183.874 45.8065Q185.051 44.6622 186.514 43.8125Q188.007 42.9428 189.618 42.4977L189.618 42.4976Q191.307 42.0312 193.123 42.0312Q195.174 42.0312 197.046 42.61Q198.458 43.0466 199.768 43.8125Q201.291 44.6973 202.495 45.9014Q203.699 47.1055 204.584 48.6289Q205.329 49.9029 205.763 51.2753Q206.365 53.1851 206.365 55.2852Q206.365 57.1392 205.88 58.8558Q205.436 60.4269 204.584 61.8828Q203.734 63.3459 202.59 64.5226Q201.352 65.7963 199.768 66.7344Q198.438 67.5175 197.001 67.9586Q195.149 68.5273 193.123 68.5273ZM225.898 42.0312Q228.409 42.0312 230.572 42.8994L230.573 42.8996Q231.509 43.2749 232.379 43.8125Q233.597 44.5605 234.592 45.5367L234.592 45.537Q235.95 46.8702 236.891 48.6289Q237.405 49.5928 237.758 50.6129Q238.52 52.8176 238.52 55.2852Q238.52 57.6962 237.787 59.8599Q237.428 60.9247 236.891 61.9297Q235.959 63.6707 234.619 64.9985Q233.614 65.9944 232.379 66.7578Q231.531 67.2778 230.622 67.645L230.622 67.6451Q228.438 68.5273 225.898 68.5273Q223.408 68.5273 221.425 67.5244Q220.58 67.0973 219.828 66.4883Q219.115 65.9114 218.504 65.2521L218.504 75.9219Q218.504 77.351 217.79 78.1102Q217.761 78.1416 217.73 78.1719Q217.699 78.2026 217.668 78.2322Q216.909 78.9453 215.48 78.9453L215.387 78.9453Q213.959 78.9453 213.188 78.2338Q213.156 78.2035 213.125 78.1719Q213.117 78.1649 213.11 78.1577Q213.1 78.1462 213.088 78.1346Q212.363 77.3742 212.363 75.9219L212.363 45.582Q212.363 44.1297 213.088 43.3693Q213.104 43.3521 213.121 43.3353L213.125 43.332Q213.156 43.3004 213.188 43.2701Q213.959 42.5586 215.387 42.5586L215.48 42.5586Q216.909 42.5586 217.668 43.2717Q217.699 43.3013 217.73 43.332Q217.76 43.3618 217.789 43.3927L217.79 43.3937Q218.436 44.0802 218.497 45.3145Q219.111 44.6503 219.828 44.0703Q220.58 43.4613 221.425 43.0341Q223.408 42.0312 225.898 42.0312ZM269.323 52.3086Q269.44 52.8783 269.44 53.3839Q269.44 54.3033 269.053 55.0107Q268.865 55.3546 268.585 55.6484Q268.466 55.7728 268.335 55.8845L268.335 55.8849Q267.187 56.8672 265.198 56.8672L249.699 56.8672Q249.892 58.3668 250.456 59.5039Q250.831 60.2481 251.374 60.837Q252.088 61.6113 253.093 62.1172Q254.874 63.0078 257.569 63.0078Q258.234 63.0078 258.872 62.877Q259.426 62.7633 259.96 62.5508Q260.204 62.4548 260.438 62.3407Q261.322 61.9116 262.081 61.2266Q263.183 60.3242 264.12 60.1836Q264.148 60.179 264.178 60.1751Q265.09 60.0535 266.112 60.7578L266.253 60.8516Q267.411 61.6417 267.619 62.6317L267.62 62.6321Q267.637 62.7138 267.647 62.7969Q267.664 62.9237 267.664 63.0496Q267.664 63.1057 267.661 63.1616Q267.608 64.0464 266.733 64.8828Q265.406 66.0443 263.893 66.8594L263.892 66.8597L263.892 66.86Q263.16 67.2535 262.386 67.5664Q260.53 68.3198 258.624 68.4825L258.62 68.4828Q258.097 68.5273 257.569 68.5273Q253.397 68.5273 250.269 66.8047Q248.429 65.7811 247.079 64.3085Q246.142 63.2859 245.44 62.0469Q245.173 61.5707 244.947 61.0754Q243.741 58.4255 243.741 55.2266Q243.741 52.016 244.964 49.3703L244.965 49.3685Q245.184 48.8959 245.44 48.4414Q246.236 47.0464 247.32 45.9327Q248.568 44.6513 250.198 43.7422Q250.625 43.5024 251.068 43.2961Q253.784 42.0312 257.089 42.0312Q259.132 42.0312 260.992 42.6138L260.993 42.614Q261.758 42.8535 262.491 43.1914Q263.093 43.4654 263.653 43.8054L263.654 43.8056Q265.444 44.8908 266.827 46.6484Q268.655 48.9453 269.323 52.3086ZM349.459 68.5273Q347.469 68.5273 345.644 67.9785Q344.17 67.5353 342.803 66.7344Q341.239 65.808 340.008 64.5541Q338.842 63.3655 337.975 61.8828Q337.141 60.4464 336.7 58.8979Q336.205 57.162 336.205 55.2852Q336.205 53.2099 336.798 51.3206Q337.236 49.924 337.998 48.6289Q338.937 47.0453 340.21 45.8065Q341.387 44.6622 342.85 43.8125Q344.343 42.9428 345.954 42.4977Q347.643 42.0312 349.459 42.0312Q351.51 42.0312 353.382 42.61Q354.794 43.0466 356.104 43.8125Q357.627 44.6973 358.831 45.9014Q360.035 47.1055 360.92 48.6289Q361.665 49.9029 362.099 51.2753Q362.701 53.185 362.701 55.2852Q362.701 57.1392 362.216 58.8558Q361.771 60.4268 360.92 61.8828Q360.07 63.3456 358.927 64.5221L358.926 64.5226Q357.688 65.7963 356.104 66.7344Q354.773 67.5172 353.338 67.9582L353.337 67.9586Q351.485 68.5273 349.459 68.5273ZM385.738 60.9453Q386.84 59.9844 387.777 59.8438Q388.715 59.6914 389.816 60.4648L390.004 60.6055Q391.178 61.4172 391.396 62.4344Q391.411 62.504 391.422 62.5742Q391.446 62.7301 391.446 62.8841Q391.446 62.9554 391.441 63.0268Q391.376 63.8847 390.531 64.6836Q389.688 65.4896 388.739 66.142L388.737 66.1432Q387.59 66.9319 386.289 67.4961Q385.593 67.7976 384.871 68.0109L384.869 68.0117Q383.124 68.5273 381.227 68.5273Q379.188 68.5273 377.322 67.9591L377.321 67.9589Q375.895 67.5244 374.57 66.7578Q373.087 65.891 371.898 64.7244L371.898 64.7241Q370.645 63.4936 369.719 61.9297Q368.936 60.5989 368.494 59.1631Q367.926 57.3115 367.926 55.2852Q367.926 53.2099 368.519 51.3206Q368.956 49.924 369.719 48.6289Q370.656 47.0453 371.93 45.8065Q373.106 44.6622 374.57 43.8125Q375.916 43.0288 377.365 42.5899L377.366 42.5898Q379.212 42.0312 381.227 42.0312Q383.19 42.0312 384.997 42.5651L384.999 42.5655Q385.703 42.7735 386.383 43.0625Q387.918 43.7151 389.213 44.6869L389.214 44.6872L389.215 44.6878Q389.966 45.2512 390.637 45.9219Q391.428 46.7501 391.46 47.6072Q391.462 47.644 391.462 47.681Q391.462 47.8788 391.422 48.0781Q391.389 48.251 391.33 48.4147L391.329 48.4152Q391.014 49.2939 389.957 49.9062L389.629 50.0938Q388.516 50.7734 387.602 50.5859Q386.699 50.3867 385.598 49.4258Q384.922 48.8235 384.133 48.4911Q383.908 48.3968 383.676 48.3242Q382.621 47.9844 381.227 47.9844Q379.059 47.9844 377.453 48.875Q376.763 49.258 376.204 49.7819Q375.464 50.4763 374.957 51.418Q374.078 53.0703 374.078 55.2852Q374.078 57.4883 374.957 59.1523Q375.464 60.0941 376.204 60.7885Q376.763 61.3123 377.453 61.6953Q379.059 62.5742 381.227 62.5742Q382.574 62.5742 383.676 62.1758Q384.777 61.7656 385.738 60.9453ZM409.242 68.5273Q406.702 68.5273 404.519 67.6451Q403.609 67.2779 402.762 66.7578Q401.584 66.027 400.613 65.0831Q399.218 63.7264 398.25 61.9297Q397.713 60.925 397.354 59.8605L397.353 59.8599Q396.621 57.6962 396.621 55.2852Q396.621 52.8176 397.383 50.6129Q397.735 49.5926 398.25 48.6289Q399.228 46.8146 400.641 45.4531Q401.601 44.5283 402.762 43.8125Q403.632 43.2749 404.567 42.8996L404.567 42.8994Q406.73 42.0312 409.242 42.0312Q411.766 42.0312 413.766 43.0543L413.767 43.0546Q414.59 43.4758 415.324 44.0703Q416.037 44.6467 416.646 45.3063Q416.72 44.1349 417.334 43.4489Q417.377 43.401 417.422 43.3555Q417.482 43.2953 417.547 43.2397Q418.331 42.5586 419.707 42.5586L419.859 42.5586Q421.238 42.5586 422.014 43.2427Q422.075 43.2969 422.133 43.3555Q422.191 43.4131 422.246 43.4746Q422.93 44.2499 422.93 45.6289L422.93 64.9297Q422.93 66.3055 422.249 67.0906Q422.193 67.1547 422.133 67.2148Q422.088 67.2604 422.04 67.3032Q421.262 68 419.859 68L419.707 68Q418.309 68 417.521 67.306Q417.47 67.2618 417.422 67.2148Q417.375 67.1672 417.331 67.117Q416.72 66.4223 416.646 65.2532Q416.037 65.9119 415.324 66.4883Q414.59 67.0828 413.767 67.504L413.766 67.5043Q411.766 68.5273 409.242 68.5273ZM493.931 68.5273Q491.391 68.5273 489.206 67.6451Q488.297 67.2779 487.45 66.7578Q486.272 66.027 485.301 65.0831Q483.905 63.7264 482.938 61.9297Q482.401 60.925 482.041 59.8605L482.041 59.8599Q481.31 57.6962 481.31 55.2852Q481.31 52.8176 482.07 50.6129Q482.423 49.5926 482.938 48.6289Q483.915 46.8146 485.328 45.4531Q486.288 44.5283 487.45 43.8125Q488.32 43.2749 489.255 42.8996L489.256 42.8994Q491.419 42.0312 493.931 42.0312Q496.454 42.0312 498.454 43.0543L498.455 43.0546Q499.278 43.4758 500.013 44.0703Q500.725 44.6467 501.335 45.3063Q501.407 44.1349 502.021 43.4489Q502.064 43.401 502.11 43.3555Q502.17 43.2953 502.234 43.2397Q503.02 42.5586 504.396 42.5586L504.548 42.5586Q505.927 42.5586 506.702 43.2427Q506.764 43.2969 506.821 43.3555Q506.88 43.4131 506.934 43.4746Q507.618 44.2499 507.618 45.6289L507.618 64.9297Q507.618 66.3055 506.937 67.0906Q506.881 67.1547 506.821 67.2148Q506.775 67.2604 506.728 67.3032Q505.949 68 504.548 68L504.396 68Q502.996 68 502.208 67.306Q502.158 67.2618 502.11 67.2148Q502.063 67.1672 502.019 67.117Q501.407 66.4223 501.335 65.2532Q500.725 65.9119 500.013 66.4883Q499.278 67.0828 498.455 67.504L498.454 67.5043Q496.454 68.5273 493.931 68.5273ZM561.691 68.5273Q559.701 68.5273 557.875 67.9785Q556.401 67.5352 555.035 66.7344C553.004 65.5312 551.395 63.9141 550.207 61.8828Q549.373 60.4464 548.932 58.8979Q548.438 57.162 548.438 55.2852Q548.438 53.2099 549.03 51.3206Q549.468 49.924 550.23 48.6289C551.434 46.5977 553.051 44.9922 555.082 43.8125Q556.575 42.9431 558.186 42.498L558.186 42.4977Q559.874 42.0312 561.691 42.0312Q563.741 42.0312 565.612 42.6096L565.614 42.61L565.615 42.6105Q567.026 43.047 568.336 43.8125Q569.859 44.6973 571.063 45.9014Q572.268 47.1055 573.152 48.6289Q573.897 49.9029 574.33 51.2753Q574.934 53.1851 574.934 55.2852Q574.934 57.1392 574.448 58.8558Q574.004 60.4268 573.152 61.8828Q572.303 63.3459 571.158 64.5226Q569.92 65.7964 568.336 66.7344Q567.006 67.5172 565.57 67.9582L565.569 67.9586Q563.717 68.5273 561.691 68.5273ZM587.035 44.9742Q587.188 44.8397 587.346 44.7095Q587.471 44.6053 587.599 44.5039Q589.405 43.0709 591.456 42.4684Q592.944 42.0312 594.56 42.0312Q595.488 42.0312 596.371 42.2316Q597.817 42.5598 599.142 43.4258Q601.274 44.8203 602.599 47.4805Q603.923 50.1406 603.923 53.6914L603.923 64.9766Q603.923 66.404 603.211 67.1739Q603.182 67.2067 603.149 67.2383Q603.131 67.2567 603.112 67.2747Q602.352 68 600.899 68L600.806 68Q599.354 68 598.583 67.2759Q598.563 67.2574 598.544 67.2383Q598.513 67.2067 598.482 67.1739Q597.771 66.404 597.771 64.9766L597.771 53.6914Q597.771 51.7227 597.056 50.457Q596.384 49.2565 595.36 48.6564Q595.295 48.618 595.228 48.582Q594.463 48.1674 593.654 48.0404L593.649 48.0397Q593.294 47.9844 592.931 47.9844Q591.196 47.9844 589.896 48.7109Q588.606 49.4258 587.833 51.1602Q587.071 52.8828 587.071 55.8125L587.071 64.9766Q587.071 66.404 586.359 67.1739Q586.33 67.2067 586.298 67.2383Q586.279 67.2567 586.261 67.2747Q585.5 68 584.048 68L583.954 68Q582.503 68 581.731 67.2759Q581.712 67.2574 581.692 67.2383Q581.674 67.2189 581.655 67.1991Q580.931 66.4276 580.931 64.9766L580.931 45.582Q580.931 44.1297 581.656 43.3693Q581.674 43.3505 581.692 43.332Q581.725 43.3004 581.757 43.2701Q582.526 42.5586 583.954 42.5586L584.048 42.5586Q585.478 42.5586 586.236 43.2717L586.243 43.2785Q586.271 43.3048 586.298 43.332Q586.328 43.362 586.357 43.3931L586.358 43.3937Q586.911 43.9825 587.035 44.9742ZM688.611 68.5273Q686.621 68.5273 684.795 67.9785Q683.321 67.5352 681.955 66.7344Q680.391 65.8079 679.16 64.5541Q677.993 63.3652 677.127 61.8828Q676.293 60.4464 675.852 58.8979Q675.357 57.1618 675.357 55.2852Q675.357 53.2099 675.95 51.3206Q676.389 49.924 677.15 48.6289Q678.088 47.0453 679.362 45.8065Q680.539 44.6622 682.002 43.8125Q683.495 42.9428 685.106 42.4977Q686.794 42.0312 688.611 42.0312Q690.661 42.0312 692.532 42.6096L692.534 42.61L692.535 42.6105Q693.946 43.047 695.256 43.8125Q696.779 44.6973 697.983 45.9014Q699.188 47.1055 700.072 48.6289Q700.817 49.9029 701.25 51.2753Q701.854 53.1851 701.854 55.2852Q701.854 57.1392 701.368 58.8558Q700.924 60.4268 700.072 61.8828Q699.223 63.3459 698.078 64.5226Q696.84 65.7964 695.256 66.7344Q693.926 67.5172 692.49 67.9582L692.489 67.9586Q690.637 68.5273 688.611 68.5273ZM747.676 52.3086Q747.793 52.8783 747.793 53.3839Q747.793 54.3033 747.405 55.0107Q747.217 55.3546 746.938 55.6484Q746.818 55.7719 746.689 55.8829L746.687 55.8849Q745.539 56.8672 743.551 56.8672L728.052 56.8672Q728.243 58.3668 728.809 59.5039Q729.183 60.248 729.726 60.837Q730.439 61.6113 731.445 62.1172Q733.227 63.0078 735.922 63.0078Q736.586 63.0078 737.224 62.877Q737.778 62.7633 738.312 62.5508Q738.547 62.4581 738.774 62.3486L738.791 62.3407Q739.674 61.9116 740.434 61.2266Q741.535 60.3242 742.473 60.1836Q742.501 60.179 742.529 60.1751Q743.442 60.0535 744.465 60.7578L744.605 60.8516Q745.764 61.6417 745.972 62.6317Q745.989 62.7136 746 62.7969Q746.017 62.9237 746.017 63.0496Q746.017 63.1057 746.013 63.1616Q745.961 64.0464 745.086 64.8828Q743.758 66.0444 742.244 66.8597Q741.513 67.2534 740.738 67.5664Q738.883 68.3196 736.977 68.4824L736.976 68.4825Q736.45 68.5273 735.922 68.5273Q731.75 68.5273 728.621 66.8047Q726.781 65.7811 725.431 64.3085Q724.494 63.2859 723.793 62.0469Q723.525 61.5718 723.301 61.0778L723.3 61.0754Q722.094 58.4255 722.094 55.2266Q722.094 52.016 723.315 49.3703L723.317 49.3671Q723.535 48.8953 723.793 48.4414Q724.588 47.0468 725.672 45.9333L725.673 45.9327Q726.92 44.6512 728.551 43.7422Q728.974 43.5046 729.412 43.3001L729.42 43.2961Q732.136 42.0312 735.441 42.0312Q737.483 42.0312 739.344 42.6138Q740.109 42.8533 740.844 43.1914Q741.444 43.4654 742.006 43.8056Q743.797 44.8908 745.18 46.6484Q747.008 48.9453 747.676 52.3086ZM770.81 60.9453Q771.911 59.9844 772.849 59.8438Q773.786 59.6914 774.888 60.4648L775.075 60.6055Q776.249 61.4172 776.468 62.4344Q776.483 62.5038 776.493 62.5742Q776.519 62.7301 776.519 62.8841Q776.519 62.9554 776.513 63.0268Q776.448 63.8846 775.603 64.6836Q774.759 65.4904 773.81 66.1432L773.809 66.1439Q772.661 66.9321 771.36 67.4961Q770.664 67.7981 769.941 68.0117Q768.195 68.5273 766.298 68.5273Q764.259 68.5273 762.394 67.9589L762.391 67.9581Q760.966 67.5237 759.642 66.7578Q758.159 65.891 756.971 64.7244Q755.717 63.4936 754.79 61.9297Q754.008 60.5991 753.566 59.1631Q752.997 57.3115 752.997 55.2852Q752.997 53.2099 753.59 51.3206Q754.028 49.924 754.79 48.6289Q755.729 47.0453 757.002 45.8065Q758.179 44.6622 759.642 43.8125Q760.988 43.0287 762.438 42.5898Q764.283 42.0312 766.298 42.0312Q768.263 42.0312 770.069 42.5651L770.071 42.5655Q770.774 42.7735 771.454 43.0625Q772.99 43.7152 774.286 44.6872L774.289 44.6894Q775.039 45.2522 775.708 45.9219Q776.5 46.7501 776.532 47.6072Q776.534 47.644 776.534 47.681Q776.534 47.8788 776.493 48.0781Q776.461 48.2504 776.402 48.4135L776.401 48.4152Q776.086 49.2939 775.028 49.9062L774.7 50.0938Q773.587 50.7734 772.673 50.5859Q771.771 50.3867 770.669 49.4258Q769.994 48.8234 769.205 48.4911L769.202 48.4899Q768.979 48.3963 768.747 48.3242Q767.692 47.9844 766.298 47.9844Q764.13 47.9844 762.524 48.875Q761.835 49.2578 761.277 49.7811L761.276 49.7819Q760.536 50.4763 760.028 51.418Q759.149 53.0703 759.149 55.2852Q759.149 57.4883 760.028 59.1523Q760.536 60.0941 761.276 60.7885L761.277 60.7892Q761.835 61.3126 762.524 61.6953Q764.13 62.5742 766.298 62.5742Q767.646 62.5742 768.747 62.1758Q769.849 61.7656 770.81 60.9453ZM281.517 44.9203Q282.82 43.8093 284.317 43.1175Q285.25 42.6863 286.259 42.418Q287.396 42.1497 288.177 42.5607Q288.385 42.6702 288.567 42.8281Q288.729 42.9661 288.861 43.1286Q289.435 43.8358 289.435 45.0078L289.435 45.1016Q289.435 46.4961 288.755 47.2461Q288.087 47.9844 286.692 48.2188Q284.923 48.5586 283.786 49.4258Q283.722 49.4756 283.658 49.5277Q282.629 50.3825 282.11 51.8516Q281.56 53.4102 281.56 55.8125L281.56 64.9766Q281.56 66.4041 280.848 67.1739Q280.817 67.2067 280.786 67.2383L280.779 67.2451Q280.764 67.26 280.749 67.2747Q279.988 68 278.536 68L278.442 68Q276.991 68 276.22 67.2759Q276.214 67.2703 276.208 67.2645Q276.194 67.2515 276.181 67.2383Q276.163 67.2211 276.146 67.2034L276.143 67.1991Q275.419 66.4276 275.419 64.9766L275.419 45.582Q275.419 44.1297 276.145 43.3693Q276.16 43.3521 276.177 43.3353L276.181 43.332Q276.212 43.3004 276.245 43.2701Q277.015 42.5586 278.442 42.5586L278.536 42.5586Q279.965 42.5586 280.725 43.2717Q280.756 43.3013 280.786 43.332Q280.816 43.3618 280.846 43.3927L280.847 43.3937Q281.384 43.9664 281.517 44.9203ZM664.093 44.9203Q665.396 43.8098 666.893 43.118L666.894 43.1175Q667.826 42.6863 668.835 42.418Q669.973 42.1497 670.753 42.5607Q670.961 42.6702 671.144 42.8281Q671.306 42.966 671.438 43.1286Q672.011 43.8358 672.011 45.0078L672.011 45.1016Q672.011 46.4961 671.331 47.2461Q670.663 47.9844 669.269 48.2188Q667.499 48.5586 666.362 49.4258Q666.299 49.4741 666.238 49.5246L666.234 49.5277Q665.205 50.3828 664.687 51.8516Q664.136 53.4102 664.136 55.8125L664.136 64.9766Q664.136 66.404 663.424 67.1739Q663.394 67.2067 663.362 67.2383Q663.344 67.2567 663.325 67.2747Q662.564 68 661.112 68L661.019 68Q659.567 68 658.796 67.2759Q658.775 67.2574 658.757 67.2383Q658.737 67.2189 658.719 67.1991Q657.995 66.4276 657.995 64.9766L657.995 45.582Q657.995 44.1297 658.72 43.3693Q658.738 43.3505 658.757 43.332Q658.788 43.3004 658.821 43.2701Q659.591 42.5586 661.019 42.5586L661.112 42.5586Q662.541 42.5586 663.301 43.2717L663.308 43.2785Q663.335 43.3048 663.362 43.332Q663.393 43.362 663.422 43.3931L663.422 43.3937Q663.96 43.9664 664.093 44.9203ZM125.463 44.9609Q125.899 43.7518 126.761 43.1513Q127.61 42.5586 128.873 42.5586L129.107 42.5586Q130.473 42.5586 131.196 43.2396Q131.343 43.3774 131.463 43.543Q131.604 43.7375 131.693 43.9537Q131.846 44.3226 131.846 44.7542Q131.846 45.3488 131.557 46.0625L123.588 65.8438Q123.21 66.8517 122.484 67.3885Q121.657 68 120.377 68L120.178 68Q118.917 68 118.093 67.3998Q117.354 66.8624 116.967 65.8438L108.998 46.0625Q108.71 45.3488 108.71 44.7542Q108.71 44.3226 108.862 43.9537Q108.951 43.7375 109.092 43.543Q109.22 43.37 109.376 43.2274Q110.105 42.5586 111.447 42.5586L111.693 42.5586Q112.96 42.5586 113.808 43.1541Q114.663 43.7547 115.092 44.9609L120.283 59.1172L125.463 44.9609ZM449.164 64.9766Q449.164 66.4041 448.452 67.1739Q448.441 67.1857 448.431 67.1973Q448.411 67.218 448.391 67.2383Q448.373 67.2554 448.356 67.2721L448.354 67.2747Q447.593 68 446.141 68L446.047 68Q444.596 68 443.824 67.2759Q443.805 67.2574 443.785 67.2383L443.777 67.2302Q443.762 67.2148 443.747 67.1991Q443.023 66.4276 443.023 64.9766L443.023 45.582Q443.023 44.1297 443.749 43.3693Q443.766 43.3521 443.782 43.3353L443.785 43.332Q443.808 43.3098 443.83 43.2883Q443.84 43.2791 443.85 43.2701Q444.619 42.5586 446.047 42.5586L446.141 42.5586Q447.569 42.5586 448.329 43.2717L448.336 43.2785Q448.364 43.3048 448.391 43.332Q448.422 43.3623 448.451 43.3937Q449.164 44.153 449.164 45.582L449.164 64.9766ZM474.075 62.2344Q475.41 62.2344 476.122 62.9006Q476.131 62.9084 476.139 62.9164Q476.162 62.9384 476.185 62.9609Q476.203 62.9794 476.221 62.9983Q476.899 63.7119 476.899 65.0703L476.899 65.1641Q476.899 66.4143 476.284 67.1501L476.281 67.1533Q476.234 67.209 476.185 67.2617Q476.143 67.3051 476.098 67.3459Q475.388 68 474.075 68L458.571 68Q457.224 68 456.474 67.3555Q456.222 67.1323 456.057 66.8575Q455.735 66.3245 455.735 65.5977L455.735 65.3633Q455.735 64.3555 455.993 63.6172Q456.263 62.8672 456.931 62L467.501 48.3242L459.005 48.3242Q457.802 48.3242 457.074 47.7359L457.072 47.7343Q456.986 47.6642 456.907 47.5859Q456.827 47.5054 456.757 47.4181Q456.169 46.6913 456.169 45.4883L456.169 45.3945Q456.169 44.082 456.822 43.3715Q456.863 43.3271 456.907 43.2852Q456.975 43.2198 457.047 43.1603Q457.778 42.5586 459.005 42.5586L473.208 42.5586Q474.556 42.5586 475.294 43.1914Q475.543 43.3981 475.71 43.6581Q476.044 44.1792 476.044 44.9141L476.044 45.1953Q476.044 46.2031 475.774 46.9531Q475.517 47.6914 474.837 48.5586L464.278 62.2344L474.075 62.2344ZM542.3 64.9766Q542.3 66.4041 541.589 67.1739Q541.578 67.1857 541.566 67.1973Q541.547 67.218 541.526 67.2383Q541.51 67.2554 541.492 67.2721L541.489 67.2747Q540.729 68 539.276 68L539.183 68Q537.731 68 536.96 67.2759Q536.94 67.2574 536.921 67.2383L536.913 67.2302Q536.898 67.2148 536.884 67.1991Q536.159 66.4276 536.159 64.9766L536.159 45.582Q536.159 44.1297 536.885 43.3693Q536.901 43.3521 536.918 43.3353L536.921 43.332Q536.943 43.3098 536.966 43.2883Q536.976 43.2791 536.985 43.2701Q537.756 42.5586 539.183 42.5586L539.276 42.5586Q540.706 42.5586 541.465 43.2717L541.472 43.2785Q541.5 43.3048 541.526 43.332Q541.558 43.3623 541.587 43.3937Q542.3 44.153 542.3 45.582L542.3 64.9766ZM707.171 78.6523Q706.084 78.9106 705.322 78.5258Q705.082 78.4043 704.874 78.2188Q704.707 78.0718 704.572 77.8994Q704.007 77.1788 704.007 76.0156L704.007 75.8281Q704.007 74.5884 704.624 73.9129L704.642 73.8945Q704.664 73.8707 704.687 73.8477Q705.354 73.1797 706.796 72.6523Q707.785 72.3304 708.424 71.67L708.448 71.6445L708.449 71.6437Q709.093 70.9759 709.409 69.9922Q709.726 69.0078 709.726 67.707L709.726 45.582Q709.726 44.1297 710.451 43.3693Q710.469 43.3505 710.487 43.332Q710.52 43.3004 710.552 43.2701Q711.322 42.5586 712.749 42.5586L712.843 42.5586Q714.272 42.5586 715.031 43.2717L715.038 43.2785Q715.066 43.3048 715.093 43.332Q715.123 43.362 715.152 43.3931L715.153 43.3937Q715.866 44.1529 715.866 45.582L715.866 67.707Q715.866 69.6871 715.257 71.4576Q715.052 72.0552 714.776 72.6289Q714.205 73.8398 713.384 74.8469Q712.655 75.7402 711.729 76.4727Q711.43 76.7113 711.115 76.928L711.11 76.9315Q709.371 78.1271 707.171 78.6523ZM409.723 63.0078Q411.984 63.0078 413.66 62.0469Q414.441 61.6022 415.054 60.9896Q415.766 60.278 416.25 59.3398Q417.164 57.582 417.164 55.2852Q417.164 52.9766 416.25 51.207Q415.724 50.1672 414.93 49.4069Q414.362 48.8647 413.66 48.4648Q411.984 47.5039 409.723 47.5039Q408.943 47.5039 408.214 47.695Q407.287 47.9376 406.441 48.4883Q406.168 48.6663 405.916 48.8703Q404.773 49.7947 404.062 51.2539Q403.195 53.0234 403.195 55.2852Q403.195 57.5352 404.062 59.293Q404.773 60.7235 405.9 61.6428L405.902 61.6443Q406.15 61.8463 406.418 62.0234Q407.082 62.4626 407.812 62.7059L407.812 62.7062Q408.718 63.0078 409.723 63.0078ZM494.411 63.0078Q496.673 63.0078 498.349 62.0469Q499.129 61.6022 499.742 60.9896Q500.453 60.278 500.938 59.3398Q501.853 57.582 501.853 55.2852Q501.853 52.9766 500.938 51.207Q500.411 50.1672 499.617 49.4069Q499.051 48.8647 498.349 48.4648Q496.673 47.5039 494.411 47.5039Q493.631 47.5039 492.901 47.695Q491.976 47.9376 491.13 48.4883Q490.856 48.6663 490.604 48.8703Q489.461 49.7947 488.751 51.2539Q487.884 53.0234 487.884 55.2852Q487.884 57.5352 488.751 59.293Q489.461 60.7235 490.589 61.6428L490.591 61.6443Q490.838 61.8463 491.106 62.0234Q491.771 62.4626 492.5 62.7059L492.5 62.7062Q493.405 63.0078 494.411 63.0078ZM98.7109 51.875Q98.6416 51.6891 98.5664 51.5117Q97.6758 49.4258 96.1172 48.4883Q96.1113 48.4849 96.1055 48.4816Q96.084 48.4688 96.0625 48.4561Q94.5215 47.5508 92.4492 47.5508Q90 47.5508 88.3359 48.4414Q87.6572 48.8074 87.1104 49.3159L87.1104 49.3159Q86.3271 50.0448 85.8164 51.0664Q85.624 51.4528 85.4756 51.875L98.7109 51.875ZM155.383 51.875Q155.314 51.6891 155.238 51.5117Q154.348 49.4258 152.789 48.4883Q152.762 48.472 152.735 48.4561Q151.194 47.5508 149.121 47.5508Q146.672 47.5508 145.008 48.4414Q144.329 48.8074 143.782 49.3159Q142.999 50.0447 142.488 51.0664Q142.296 51.4527 142.147 51.875L155.383 51.875ZM225.418 47.5508Q223.156 47.5508 221.48 48.5117Q220.775 48.9155 220.206 49.4602Q219.42 50.2114 218.891 51.2305Q217.977 52.9766 217.977 55.2852Q217.977 57.582 218.891 59.3633Q219.435 60.4166 220.248 61.1834Q220.802 61.7048 221.48 62.0938Q223.156 63.0547 225.418 63.0547Q226.197 63.0547 226.927 62.8636Q227.854 62.621 228.699 62.0703Q228.993 61.8787 229.263 61.6573L229.265 61.656Q230.38 60.7404 231.078 59.3164Q231.945 57.5352 231.945 55.2852Q231.945 53.0234 231.078 51.2773Q230.354 49.8107 229.198 48.8826L229.196 48.8807Q228.968 48.6974 228.723 48.5352Q228.114 48.1298 227.446 47.8914Q226.493 47.5508 225.418 47.5508ZM263.352 51.875Q263.282 51.6891 263.206 51.5117Q262.315 49.4258 260.757 48.4883L260.746 48.4818Q260.725 48.4689 260.703 48.4561Q259.162 47.5508 257.089 47.5508Q254.64 47.5508 252.976 48.4414Q252.297 48.8074 251.75 49.3159Q250.967 50.0447 250.456 51.0664Q250.265 51.4527 250.115 51.875L263.352 51.875ZM741.703 51.875Q741.634 51.6891 741.559 51.5117Q740.668 49.4258 739.109 48.4883Q739.082 48.472 739.055 48.4561Q737.514 47.5508 735.441 47.5508Q732.992 47.5508 731.328 48.4414Q730.648 48.8074 730.103 49.3159L730.102 49.3166Q729.318 50.0452 728.809 51.0664Q728.616 51.4529 728.468 51.875L741.703 51.875ZM193.123 62.8672Q195.076 62.8672 196.577 62.0435Q196.697 61.9775 196.814 61.9062Q197.428 61.5339 197.93 61.0472Q198.724 60.2778 199.24 59.2227Q200.084 57.4883 200.084 55.2852Q200.084 53.0234 199.24 51.3242Q198.737 50.3043 197.972 49.5508Q197.453 49.0404 196.814 48.6523Q196.697 48.5811 196.577 48.5151Q195.076 47.6914 193.123 47.6914Q191.126 47.6914 189.605 48.5438L189.596 48.5494Q189.507 48.5994 189.42 48.6523Q188.781 49.0404 188.263 49.5508Q187.497 50.3043 186.994 51.3242Q186.162 53.0234 186.162 55.2852Q186.162 57.4883 187.018 59.2227Q187.602 60.3826 188.499 61.1973Q188.935 61.5924 189.443 61.9062Q189.502 61.9424 189.562 61.9773Q191.082 62.8672 193.123 62.8672ZM349.459 62.8672Q351.412 62.8672 352.913 62.0435L352.937 62.0306Q353.045 61.9706 353.15 61.9062Q353.764 61.5339 354.266 61.0472Q355.06 60.2778 355.576 59.2227Q356.42 57.4883 356.42 55.2852Q356.42 53.0234 355.576 51.3242Q355.073 50.3043 354.308 49.5508Q353.789 49.0403 353.15 48.6523Q353.045 48.588 352.937 48.528L352.913 48.5151Q351.412 47.6914 349.459 47.6914Q347.462 47.6914 345.942 48.5438L345.932 48.5494Q345.844 48.5994 345.756 48.6523Q345.117 49.0403 344.599 49.5508Q343.833 50.3043 343.33 51.3242Q342.498 53.0234 342.498 55.2852Q342.498 57.4883 343.354 59.2227Q343.938 60.3826 344.835 61.1973Q345.271 61.5924 345.779 61.9062Q345.803 61.9205 345.826 61.9345Q345.861 61.9562 345.897 61.9773Q347.418 62.8672 349.459 62.8672ZM561.691 62.8672Q563.645 62.8672 565.146 62.0435Q565.266 61.9775 565.383 61.9062Q565.995 61.5343 566.497 61.0483L566.498 61.0472Q567.292 60.2775 567.809 59.2227Q568.652 57.4883 568.652 55.2852Q568.652 53.0234 567.809 51.3242Q567.306 50.3043 566.54 49.5508Q566.021 49.0404 565.383 48.6523Q565.266 48.5811 565.146 48.5151Q563.645 47.6914 561.691 47.6914Q559.693 47.6914 558.174 48.5438L558.164 48.5494Q558.075 48.5994 557.988 48.6523Q557.35 49.0404 556.831 49.5508Q556.065 50.3043 555.562 51.3242Q554.73 53.0234 554.73 55.2852Q554.73 57.4883 555.586 59.2227Q556.17 60.3826 557.067 61.1973Q557.503 61.5924 558.012 61.9062Q558.07 61.9424 558.13 61.9773Q559.65 62.8672 561.691 62.8672ZM688.611 62.8672Q690.564 62.8672 692.065 62.0435Q692.186 61.9775 692.303 61.9062Q692.915 61.5343 693.417 61.0483L693.418 61.0472Q694.212 60.2775 694.729 59.2227Q695.572 57.4883 695.572 55.2852Q695.572 53.0234 694.729 51.3242Q694.226 50.3043 693.46 49.5508Q692.941 49.0404 692.303 48.6523Q692.186 48.5811 692.065 48.5151Q690.564 47.6914 688.611 47.6914Q686.613 47.6914 685.094 48.5438L685.084 48.5494Q684.995 48.5994 684.908 48.6523Q684.27 49.0404 683.751 49.5508Q682.985 50.3043 682.482 51.3242Q681.65 53.0234 681.65 55.2852Q681.65 57.4883 682.506 59.2227Q683.09 60.3824 683.987 61.1973Q684.423 61.5924 684.932 61.9062Q684.99 61.9424 685.05 61.9773Q686.57 62.8672 688.611 62.8672Z" fill-rule="evenodd" fill="#25C2A0"/>
		<path id="EN -&gt; 中文" d="M1467.59 306.676L1467.59 315.025L1493.66 315.025L1493.66 355.719L1467.59 355.719L1467.59 372.207L1458.24 372.207L1458.24 355.719L1432.17 355.719L1432.17 315.025L1458.24 315.025L1458.24 306.676L1467.59 306.676ZM1534.91 360.465Q1547.52 368.604 1567.31 372.928L1567.31 362.979Q1552.19 358.883 1543.26 353.979Q1546.19 351.251 1548.62 348.141Q1556.87 337.625 1559.54 322.742L1567.31 322.742L1567.31 313.514L1539.59 313.514L1539.59 306.676L1530.24 306.676L1530.24 313.514L1502.52 313.514L1502.52 322.742L1510.29 322.742Q1512.96 337.625 1521.2 348.141Q1523.64 351.251 1526.56 353.979Q1517.63 358.883 1502.52 362.979L1502.52 372.928Q1522.31 368.604 1534.91 360.465ZM1226.32 314.604L1261.74 314.604L1261.74 324.395L1238.21 324.395L1238.21 335.188L1258.65 335.188L1258.65 344.328L1238.21 344.328L1238.21 355.209L1261.74 355.209L1261.74 365L1226.32 365L1226.32 314.604ZM1279.88 325.836L1280.32 325.836L1292.42 365L1311.79 365L1311.79 314.604L1300.12 314.604L1300.12 354.418L1299.18 354.418L1287.16 314.604L1268.23 314.604L1268.23 365L1279.88 365L1279.88 325.836ZM1368.6 364.209L1406.11 348.951L1406.11 337.859L1368.6 322.584L1368.6 331.883L1398.18 343.396L1368.6 354.928L1368.6 364.209ZM1525.63 337.402Q1521.96 331.092 1520.22 322.742L1549.61 322.742Q1547.87 331.092 1544.19 337.402Q1542.42 340.446 1540.19 343.111Q1537.81 345.957 1534.91 348.371Q1532.02 345.957 1529.64 343.111Q1527.41 340.446 1525.63 337.402ZM1458.24 346.42L1458.24 324.324L1441.52 324.324L1441.52 346.42L1458.24 346.42ZM1484.3 346.42L1484.3 324.324L1467.59 324.324L1467.59 346.42L1484.3 346.42ZM1361.68 338.721L1361.68 347.07L1339.57 347.07L1339.57 338.721L1361.68 338.721Z" fill-rule="evenodd" fill="#25C2A0"/>
	</g>
</svg>
