<?xml version="1.0" standalone="no"?>
<!DOCTYPE svg PUBLIC "-//W3C//DTD SVG 20010904//EN"
 "http://www.w3.org/TR/2001/REC-SVG-20010904/DTD/svg10.dtd">
<svg version="1.0" xmlns="http://www.w3.org/2000/svg"
 width="700.000000pt" height="700.000000pt" viewBox="0 0 700.000000 700.000000"
 preserveAspectRatio="xMidYMid meet">
<metadata>
Created by potrace 1.14, written by Peter Selinger 2001-2017
</metadata>
<g transform="translate(0.000000,700.000000) scale(0.100000,-0.100000)"
fill="#000000" stroke="none">
<path d="M0 6300 l0 -700 1050 0 1050 0 0 700 0 700 -1050 0 -1050 0 0 -700z"/>
<path d="M2800 6300 l0 -700 1401 0 1401 0 -5 -772 c-3 -425 -8 -795 -11 -823
-3 -27 -8 -81 -11 -120 -8 -94 -22 -187 -39 -270 -56 -262 -186 -595 -328
-834 -148 -252 -364 -514 -563 -686 -280 -241 -592 -423 -923 -536 -197 -68
-371 -108 -572 -135 -80 -10 -251 -25 -322 -28 l-28 -1 0 -699 0 -699 143 7
c207 11 210 11 387 32 32 3 94 13 130 19 8 1 35 6 60 10 25 4 54 9 65 11 11 2
34 7 50 10 17 3 84 18 150 34 500 123 958 324 1360 598 248 170 393 290 611
507 142 142 192 196 301 325 51 60 177 231 240 325 290 433 539 1046 633 1559
32 174 41 258 56 521 3 39 7 739 10 1558 l6 1487 -2101 0 -2101 0 0 -700z"/>
<path d="M0 4200 l0 -700 1050 0 1050 0 0 700 0 700 -1050 0 -1050 0 0 -700z"/>
<path d="M2800 3850 l0 -1050 700 -350 700 -350 0 1400 0 1400 -700 0 -700 0
0 -1050z"/>
<path d="M700 2100 l0 -700 -350 0 -350 0 0 -701 0 -701 417 5 c230 4 436 9
458 12 227 32 396 94 576 210 214 138 386 328 498 552 45 88 90 202 97 243 3
14 9 41 14 60 5 19 12 62 15 95 4 33 9 71 12 85 3 14 7 366 10 783 l5 757
-701 0 -701 0 0 -700z"/>
<path d="M6302 689 c-375 -374 -682 -682 -682 -685 0 -2 311 -4 691 -4 l690 0
-2 680 c-1 375 -5 683 -9 685 -4 2 -314 -302 -688 -676z"/>
</g>
</svg>
