<?xml version="1.0" standalone="no"?>
<!DOCTYPE svg PUBLIC "-//W3C//DTD SVG 20010904//EN" "http://www.w3.org/TR/2001/REC-SVG-20010904/DTD/svg10.dtd">
<svg version="1.0" xmlns="http://www.w3.org/2000/svg"
    width="611.000000pt" height="285.000000pt" viewBox="0 0 611.000000 285.000000"
    preserveAspectRatio="xMidYMid meet">
    <g transform="translate(0.000000,285.000000) scale(0.100000,-0.100000)"
        fill="#000000" stroke="none">
        <path
            d="M689 2501 c-88 -18 -177 -99 -199 -182 -7 -25 -10 -253 -8 -646 3
-602 3 -608 25 -648 25 -47 74 -95 123 -121 34 -18 108 -19 2087 -22 l2051 -2
173 -223 c240 -310 248 -317 333 -317 55 0 101 35 116 88 5 20 10 130 10 244
l0 208 28 6 c77 19 147 78 181 154 20 44 21 63 21 655 0 569 -2 613 -19 650
-27 60 -67 103 -125 133 l-51 27 -2355 1 c-1295 1 -2371 -1 -2391 -5z m4751
-116 c16 -8 42 -32 57 -52 l28 -36 3 -566 c2 -311 0 -585 -3 -609 -12 -85 -90
-142 -192 -142 l-43 0 0 -265 c0 -231 -2 -266 -16 -272 -23 -9 -46 18 -256
288 l-192 249 -2041 0 c-1436 0 -2052 3 -2080 11 -50 14 -102 63 -115 109 -6
21 -10 260 -10 600 l0 566 23 44 c12 25 37 55 56 67 l34 23 2359 0 c2077 0
2362 -2 2388 -15z" />
        <path
            d="M2545 2196 c-37 -17 -80 -62 -94 -99 -7 -18 -11 -163 -11 -405 0
-422 2 -434 71 -483 l34 -24 1315 0 1315 0 34 24 c69 49 71 61 71 483 0 242
-4 387 -11 405 -14 38 -57 83 -96 99 -47 20 -2583 20 -2628 0z m415 -86 c87
-24 153 -96 165 -181 10 -69 -10 -99 -66 -99 -58 0 -76 13 -84 62 -9 51 -52
98 -92 99 -94 4 -131 -16 -150 -77 -14 -47 -17 -381 -3 -438 5 -21 17 -48 28
-58 26 -27 89 -39 134 -27 47 12 74 46 82 104 8 50 26 65 78 65 56 0 73 -20
73 -82 -2 -113 -83 -196 -215 -218 -78 -13 -134 -7 -200 21 -58 26 -77 44
-109 104 l-26 50 0 250 0 250 30 60 c23 46 41 67 76 88 73 45 176 54 279 27z
m428 -2 c9 -8 12 -55 12 -174 l0 -164 135 0 135 0 0 164 c0 186 1 189 75 189
79 0 75 24 75 -429 l0 -403 -22 -15 c-12 -9 -36 -16 -53 -16 -17 0 -41 7 -53
16 -21 15 -22 20 -22 195 l0 179 -135 0 -135 0 0 -179 c0 -175 -1 -180 -22
-195 -30 -21 -81 -20 -107 2 -21 17 -21 19 -19 422 l3 404 25 13 c27 14 86 9
108 -9z m935 0 c20 -18 49 -101 141 -405 64 -210 113 -389 110 -398 -14 -36
-109 -60 -132 -32 -5 6 -20 49 -33 95 l-22 82 -138 0 c-123 0 -138 -2 -143
-17 -49 -172 -49 -173 -99 -173 -30 0 -87 36 -87 56 0 13 73 256 201 665 43
140 50 147 131 148 35 1 53 -5 71 -21z m801 6 c24 -23 29 -59 14 -91 -13 -28
-14 -28 -116 -31 l-102 -3 0 -353 0 -353 -25 -11 c-39 -18 -83 -14 -105 8 -19
19 -20 33 -20 365 l0 345 -92 0 c-71 0 -95 4 -110 17 -22 20 -24 71 -2 101 15
22 18 22 279 22 226 0 266 -2 279 -16z" />
        <path
            d="M4194 1749 l-51 -179 103 0 c57 0 104 3 104 7 0 14 -93 338 -99 345
-3 4 -29 -74 -57 -173z" />
        <path
            d="M885 2121 c-11 -5 -28 -18 -38 -29 -17 -19 -14 -31 98 -398 64 -209
118 -387 121 -397 14 -48 144 -63 184 -21 23 25 253 780 244 806 -7 22 -60 48
-98 48 -16 0 -31 -9 -40 -22 -8 -13 -51 -156 -96 -318 -45 -162 -85 -301 -89
-308 -4 -7 -47 130 -96 304 -49 174 -96 323 -103 331 -15 14 -56 16 -87 4z" />
        <path
            d="M1607 2115 c-15 -15 -17 -57 -17 -419 0 -458 -4 -436 82 -436 74 0
78 9 78 199 l0 162 48 -3 47 -3 90 -175 c75 -145 95 -176 118 -184 34 -12 69
4 100 46 22 30 30 10 -76 210 l-68 126 43 24 c64 35 100 100 106 192 8 127
-36 210 -133 253 -60 26 -394 33 -418 8z m338 -137 c35 -16 55 -57 55 -113 0
-97 -39 -125 -171 -125 l-79 0 0 125 0 125 85 0 c46 0 96 -5 110 -12z" />
    </g>
</svg>